<svg xmlns="http://www.w3.org/2000/svg" width="179.332" height="32" viewBox="0 0 179.332 32">
  <g id="Logo" transform="translate(-116 132)">
    <path id="Path_11" data-name="Path 11" d="M133.911,34.954a4.891,4.891,0,0,0-2.21-1.766c-.176-.075-.363-.135-.548-.2a4.867,4.867,0,0,0,1.827-1.611,4.676,4.676,0,0,0,.751-2.655,4.373,4.373,0,0,0-1.848-3.67,9.131,9.131,0,0,0-5.518-1.39h-9.507l0,19.459h10.063a9.994,9.994,0,0,0,5.81-1.4,4.525,4.525,0,0,0,1.974-3.906,4.978,4.978,0,0,0-.792-2.863m-12.578-7.9h4.476a4.614,4.614,0,0,1,2.515.57,1.9,1.9,0,0,1,.875,1.71,1.929,1.929,0,0,1-.876,1.737,4.615,4.615,0,0,1-2.515.57h-4.476Zm7.907,12.107a5.017,5.017,0,0,1-2.655.57h-5.254V34.924h5.254a4.832,4.832,0,0,1,2.654.6,2.032,2.032,0,0,1,.9,1.821,1.992,1.992,0,0,1-.9,1.821" transform="translate(42.892 -146.806)" fill="#161615"/>
    <path id="Path_10" data-name="Path 10" d="M10.535,11.366l.014-1.438c.061-6.274-3.635-8.9-7.6-8.939L0,.961c1.837.421,2.244,1.295,2.235,2.247L2.1,16.856c-.041,4.217,4.254,7.691,8.42,7.931h.091L10.542,32l.039,0a7.471,7.471,0,0,0,7.542-7.359l-7.333-.072.036-3.622a5.44,5.44,0,0,1,5.494-5.388l6.645.065h.057C30.43,15.7,30.836,10.962,37.815.13L24.531,0a13.671,13.671,0,0,0-14,11.366" transform="translate(116 -132)" fill="#161615"/>
    <rect id="Rectangle_3" data-name="Rectangle 3" width="4.337" height="20.626" transform="translate(180.591 -124.305)" fill="#161615"/>
    <path id="Path_13" data-name="Path 13" d="M248.165,39.177a4.018,4.018,0,0,1,2-.5,3.789,3.789,0,0,1,1.9.5,3.907,3.907,0,0,1,1.459,1.557l3.364-1.806a6.018,6.018,0,0,0-2.585-2.822,8.244,8.244,0,0,0-4.114-.987,9.177,9.177,0,0,0-4.309.986,7.554,7.554,0,0,0,0,13.427,9.175,9.175,0,0,0,4.308.987,8.243,8.243,0,0,0,4.114-.986,6.047,6.047,0,0,0,2.586-2.794L253.529,44.9a3.756,3.756,0,0,1-1.459,1.571,3.858,3.858,0,0,1-1.9.486,4.007,4.007,0,0,1-2-.5,3.616,3.616,0,0,1-1.4-1.418,5.065,5.065,0,0,1,0-4.448,3.607,3.607,0,0,1,1.4-1.417" transform="translate(-35.311 -153.972)" fill="#161615"/>
    <path id="Path_16" data-name="Path 16" d="M389.638,17.893a2.858,2.858,0,0,0-1.946-.654,2.756,2.756,0,0,0-1.946.694,2.355,2.355,0,0,0,0,3.447,2.747,2.747,0,0,0,1.946.695,2.71,2.71,0,0,0,1.96-.708,2.382,2.382,0,0,0,.736-1.793,2.125,2.125,0,0,0-.749-1.682" transform="translate(-124.864 -142.785)" fill="#161615"/>
    <path id="Path_17" data-name="Path 17" d="M411.689,37.326V35.361h-4.142l0,14.955h4.337V43.255a3.687,3.687,0,0,1,3.976-4.168q.25,0,.472.014c.148.01.315.023.5.042v-4a7.288,7.288,0,0,0-3.587.819,4.776,4.776,0,0,0-1.557,1.368" transform="translate(-138.972 -153.984)" fill="#161615"/>
    <path id="Path_18" data-name="Path 18" d="M447.46,20.59v7.236a5.035,5.035,0,0,0-1.168-.954,6.4,6.4,0,0,0-3.308-.834,7.687,7.687,0,0,0-3.808.945,6.935,6.935,0,0,0-2.683,2.669,8.09,8.09,0,0,0-.987,4.086,8.027,8.027,0,0,0,.987,4.059,7.03,7.03,0,0,0,2.682,2.683,7.6,7.6,0,0,0,3.808.959,6.5,6.5,0,0,0,3.378-.833,4.91,4.91,0,0,0,1.293-1.119v1.731h4.142l0-20.626Zm-.432,15.358a3.668,3.668,0,0,1-1.376,1.431,3.746,3.746,0,0,1-1.919.5,3.8,3.8,0,0,1-1.945-.5,3.652,3.652,0,0,1-1.376-1.432,5.032,5.032,0,0,1,0-4.433,3.676,3.676,0,0,1,1.376-1.418,3.8,3.8,0,0,1,1.946-.5,3.752,3.752,0,0,1,1.918.5,3.683,3.683,0,0,1,1.376,1.418,5.039,5.039,0,0,1,0,4.434" transform="translate(-156.464 -144.882)" fill="#161615"/>
    <path id="Path_14" data-name="Path 14" d="M303.817,26.241h-5.17l-6.338,6.009V20.569h-4.336l0,20.626h4.337V37.4l2.1-2.059,4.715,5.856h5.254l-6.784-8.625Z" transform="translate(-64.163 -144.868)" fill="#161615"/>
    <path id="Path_12" data-name="Path 12" d="M203.332,35.334V36.9a5.041,5.041,0,0,0-1.167-.954,6.4,6.4,0,0,0-3.308-.834,7.691,7.691,0,0,0-3.809.945,6.938,6.938,0,0,0-2.682,2.669,8.893,8.893,0,0,0,0,8.145,7.034,7.034,0,0,0,2.682,2.683,7.605,7.605,0,0,0,3.808.959,6.5,6.5,0,0,0,3.378-.833,4.9,4.9,0,0,0,1.293-1.12v1.731h4.142V35.335Zm-.432,9.688a3.668,3.668,0,0,1-1.376,1.431,3.747,3.747,0,0,1-1.918.5,3.8,3.8,0,0,1-1.946-.5,3.652,3.652,0,0,1-1.375-1.432,5.033,5.033,0,0,1,0-4.434,3.676,3.676,0,0,1,1.376-1.418,3.8,3.8,0,0,1,1.946-.5,3.746,3.746,0,0,1,1.918.5,3.683,3.683,0,0,1,1.376,1.418,5.032,5.032,0,0,1,0,4.434" transform="translate(-3.732 -153.967)" fill="#161615"/>
    <rect id="Rectangle_4" data-name="Rectangle 4" width="4.337" height="14.956" transform="translate(260.657 -118.625)" fill="#161615"/>
    <path id="Path_15" data-name="Path 15" d="M351.479,29.639a6.971,6.971,0,0,0-2.669-2.669,7.617,7.617,0,0,0-3.794-.945,6.406,6.406,0,0,0-3.309.833,5.091,5.091,0,0,0-1.2.979V20.575h-4.336l0,20.626h4.142V39.466a4.918,4.918,0,0,0,1.307,1.124,6.58,6.58,0,0,0,3.391.834,7.531,7.531,0,0,0,3.8-.958,7.068,7.068,0,0,0,2.669-2.682,8.031,8.031,0,0,0,.988-4.058,8.1,8.1,0,0,0-.986-4.087m-3.92,6.3a3.615,3.615,0,0,1-3.294,1.932,3.8,3.8,0,0,1-1.946-.5,3.549,3.549,0,0,1-1.362-1.431,5.159,5.159,0,0,1,0-4.434,3.586,3.586,0,0,1,1.363-1.417,3.809,3.809,0,0,1,1.946-.5,3.635,3.635,0,0,1,3.293,1.918,5.032,5.032,0,0,1,0,4.434" transform="translate(-94.32 -144.872)" fill="#161615"/>
  </g>
</svg>
